<svg width="240" height="240" xmlns="http://www.w3.org/2000/svg">
 <defs>
  <linearGradient y2="0" x2="0.5" y1="1" x1="0.5" id="linear-gradient">
   <stop stop-color="#1d93d2" offset="0"/>
   <stop stop-color="#38b0e3" offset="1"/>
  </linearGradient>
 </defs>
 <title>Telegram_logo</title>
 <g>
  <title>background</title>
  <rect fill="none" id="canvas_background" height="402" width="582" y="-1" x="-1"/>
 </g>
 <g>
  <title>Layer 1</title>
  <circle stroke-opacity="0" stroke="url(#linear-gradient)" id="svg_1" fill="#ef6d58" r="120" cy="120" cx="120"/>
  <path id="svg_4" fill="#fff" d="m81.486,130.178l-29.286,-9.542s-3.5,-1.42 -2.373,-4.64c0.232,-0.664 0.7,-1.229 2.1,-2.2c6.489,-4.523 120.106,-45.36 120.106,-45.36s3.208,-1.081 5.1,-0.362a2.766,2.766 0 0 1 1.885,2.055a9.357,9.357 0 0 1 0.254,2.585c-0.009,0.752 -0.1,1.449 -0.169,2.542c-0.692,11.165 -21.4,94.493 -21.4,94.493s-1.239,4.876 -5.678,5.043a8.13,8.13 0 0 1 -5.925,-2.292c-8.711,-7.493 -38.819,-27.727 -45.472,-32.177a1.27,1.27 0 0 1 -0.546,-0.9c-0.093,-0.469 0.417,-1.05 0.417,-1.05s52.426,-46.6 53.821,-51.492c0.108,-0.379 -0.3,-0.566 -0.848,-0.4c-3.482,1.281 -63.844,39.4 -70.506,43.607a3.21,3.21 0 0 1 -1.48,0.09z"/>
 </g>
</svg>